<svg width="149" height="203" viewBox="0 0 149 203" fill="none" xmlns="http://www.w3.org/2000/svg">
<g clip-path="url(#clip0_8_419)">
<path d="M28.0906 23.4528L41.9484 31.2417L39.2923 35.754L25.4634 27.9939L28.0906 23.4528Z" fill="#5C6467"/>
<path d="M65.1318 4.59864L79.134 12.445L81.5302 7.81767L67.8457 0.11499L65.1318 4.59864Z" fill="#5C6467"/>
<path d="M68.4226 1.32207C68.4226 2.50047 67.5853 3.93753 66.546 4.5411C65.5067 5.14467 64.6694 4.65607 64.6694 3.47767C64.6694 2.29928 65.5067 0.86221 66.546 0.258643C67.5853 -0.344925 68.4226 0.143677 68.4226 1.32207Z" fill="#5C6467"/>
<path d="M28.6681 24.66C28.6681 25.8384 27.8309 27.2755 26.7915 27.8791C25.7811 28.4826 24.9438 27.994 24.9438 26.8156C24.9438 25.6372 25.7811 24.2002 26.8204 23.5966C27.8309 23.0218 28.6681 23.4816 28.6681 24.66Z" fill="#5C6467"/>
<path d="M82.3959 6.49552L81.1544 5.77698C81.1256 5.77698 81.1256 5.74824 81.1256 5.74824H81.039C80.5193 5.48957 79.7975 5.54705 79.0469 6.00691C77.4013 6.95538 76.0732 9.22594 76.0732 11.1229C76.0732 12.0426 76.3908 12.7036 76.9105 13.0198H76.9394L78.1808 13.7383L78.6138 13.0198C78.7582 12.9623 78.9025 12.9048 79.0758 12.8186C80.7214 11.8701 82.0494 9.59958 82.0494 7.70265C82.0494 7.53021 82.0205 7.3865 82.0205 7.24279L82.3959 6.49552Z" fill="#3B4549"/>
<path d="M83.291 8.42118C83.291 10.2894 81.963 12.5887 80.3174 13.5371C78.6718 14.4856 77.3438 13.7383 77.3438 11.8414C77.3438 9.94447 78.6718 7.67391 80.3174 6.72545C81.963 5.77698 83.291 6.553 83.291 8.42118Z" fill="#5C6467"/>
<path d="M82.1653 9.05352C82.1653 10.2319 81.328 11.669 80.2887 12.2725C79.2493 12.8761 78.4121 12.3875 78.4121 11.2091C78.4121 10.0307 79.2493 8.59366 80.2887 7.99009C81.328 7.38652 82.1653 7.87512 82.1653 9.05352Z" fill="#FFC536"/>
<path d="M42.6703 29.8623L41.4288 29.1437C41.4 29.1437 41.4 29.115 41.3711 29.115L41.3134 29.0863C40.7937 28.8276 40.0719 28.8851 39.3213 29.3449C37.6757 30.2934 36.3477 32.564 36.3477 34.4609C36.3477 35.3806 36.6652 36.0417 37.1849 36.3578H37.2138L38.4552 37.0763L38.8882 36.3578C39.0326 36.3003 39.177 36.2428 39.3502 36.1566C40.9958 35.2082 42.3238 32.9376 42.3238 31.0407C42.3238 30.8682 42.2949 30.7245 42.2949 30.5808L42.6703 29.8623Z" fill="#3B4549"/>
<path d="M43.5362 31.759C43.5362 33.6272 42.2081 35.9265 40.5625 36.875C38.9169 37.8235 37.5889 37.0762 37.5889 35.1793C37.5889 33.3111 38.9169 31.0118 40.5625 30.0633C42.2081 29.1436 43.5362 29.8909 43.5362 31.759Z" fill="#5C6467"/>
<path d="M42.4392 32.3915C42.4392 33.5699 41.6019 35.007 40.5626 35.6105C39.5233 36.2141 38.686 35.7255 38.686 34.5471C38.686 33.3687 39.5233 31.9316 40.5626 31.3281C41.6019 30.7532 42.4392 31.2131 42.4392 32.3915Z" fill="#FFC536"/>
<path d="M91.1969 131.676C95.2438 129.321 95.204 121.757 91.1079 114.782C87.0118 107.807 80.4107 104.062 76.3637 106.417C72.3168 108.773 72.3566 116.337 76.4527 123.312C80.5488 130.287 87.15 134.032 91.1969 131.676Z" fill="#3B4549"/>
<path d="M76.7947 106.199L71.8579 108.987L86.9282 134.136L91.7207 131.348L87.5923 114.304L76.7947 106.199Z" fill="#3B4549"/>
<path d="M68.8843 115.626C68.8843 122.208 73.5613 130.227 79.3065 133.532C85.0805 136.837 89.7287 134.193 89.7287 127.611C89.7287 121.03 85.0517 113.011 79.3065 109.706C73.5613 106.372 68.8843 109.045 68.8843 115.626Z" fill="#5C6467"/>
<path d="M72.7529 117.839C72.7529 121.978 75.6977 127.037 79.3065 129.106C82.9153 131.175 85.8601 129.508 85.8601 125.37C85.8601 121.231 82.9153 116.172 79.3065 114.103C75.6977 112.034 72.7529 113.701 72.7529 117.839Z" fill="#FFC536"/>
<path d="M95.1566 137.585L77.8633 120.627L79.3357 119.794L95.1566 123.875V137.585Z" fill="#FFF98B"/>
<path d="M93.7136 138.418L77.8638 124.277V120.627L93.7136 124.708V138.418Z" fill="#FFE25B"/>
<path d="M149 166.441L108.928 189.463V191.532L149 168.51V166.441Z" fill="#FFC536"/>
<path d="M97.7551 138.188H94.7526V33.9721C94.7526 29.5459 92.8183 24.2575 89.6137 19.8313C87.5927 17.0722 85.2542 14.8878 82.8291 13.4795L79.6245 11.6401L81.1258 9.05334L84.3304 10.8928C87.1019 12.5023 89.7869 14.9741 92.0388 18.0781C95.6187 22.9929 97.7551 28.9136 97.7551 33.9721V138.188Z" fill="#FFC536"/>
<path d="M96.3406 90.2478C96.4561 90.1903 96.5138 90.0466 96.5138 89.8454C96.5138 89.443 96.2251 88.9544 95.8787 88.7245C95.7055 88.6383 95.5611 88.6095 95.4456 88.667L55.1426 111.833L55.9798 113.413L96.3406 90.2478Z" fill="#DD9A36"/>
<path d="M96.3406 47.9692C96.4561 47.9117 96.5138 47.768 96.5138 47.5668C96.5138 47.1644 96.2251 46.6758 95.8787 46.4459C95.7055 46.3597 95.5611 46.3309 95.4456 46.3884L55.1426 69.5539L55.9798 71.1347L96.3406 47.9692Z" fill="#DD9A36"/>
<path d="M54.1318 146.063V157.704L94.175 134.682V123.042L54.1318 146.063Z" fill="#FFF98B"/>
<path d="M80.0864 122.352C80.2597 122.237 80.3751 122.007 80.3751 121.662C80.3751 120.972 79.8843 120.139 79.2781 119.765C78.9894 119.593 78.7295 119.593 78.5274 119.679H78.4986L41.9775 140.689L43.3922 143.39L80.0864 122.352C80.0576 122.381 80.0576 122.381 80.0864 122.352Z" fill="#DD9A36"/>
<path d="M56.5857 159.744L40.7358 145.632V141.953L56.5857 146.035V159.744Z" fill="#FFF98B"/>
<path d="M108.928 189.463L55.1133 158.537L95.1565 135.515L149 166.441L108.928 189.463Z" fill="#FFE25B"/>
<path d="M55.1133 146.897V158.537L95.1565 135.515V123.875L55.1133 146.897Z" fill="#DD9A36"/>
<path d="M55.113 160.607L39.2632 146.466V142.816L55.113 146.897V160.607Z" fill="#FFE25B"/>
<path d="M108.927 189.463L55.1128 158.537V160.607L108.927 191.532V189.463Z" fill="#FFC536"/>
<path d="M57.7107 161.21H54.7082V56.9942C54.7082 52.568 52.7738 47.2796 49.5692 42.8534C47.5483 40.0943 45.2098 37.9099 42.7847 36.5016L39.5801 34.6622L41.0813 32.0754L44.286 33.9149C47.0575 35.5244 49.7425 37.9962 51.9943 41.1002C55.5743 46.015 57.7107 51.9357 57.7107 56.9942V161.21Z" fill="#FFC536"/>
<path d="M46.6778 157.319C50.7248 154.963 50.6849 147.4 46.5889 140.425C42.4928 133.45 35.8916 129.704 31.8447 132.06C27.7978 134.415 27.8376 141.979 31.9337 148.954C36.0297 155.929 42.6309 159.674 46.6778 157.319Z" fill="#3B4549"/>
<path d="M46.9141 157.186L42.2082 159.917L37.127 149.024L27.0513 134.825L32.0747 131.923L46.9141 157.186Z" fill="#3B4549"/>
<path d="M24.3667 141.264C24.3667 147.845 29.0437 155.864 34.7889 159.169C40.5341 162.475 45.2111 159.83 45.2111 153.249C45.2111 146.667 40.5341 138.648 34.7889 135.343C29.0437 132.038 24.3667 134.682 24.3667 141.264Z" fill="#5C6467"/>
<path d="M28.2642 143.477C28.2642 147.615 31.2089 152.674 34.8177 154.743C38.4265 156.813 41.3713 155.146 41.3713 151.007C41.3713 146.868 38.4265 141.81 34.8177 139.74C31.2089 137.671 28.2642 139.338 28.2642 143.477Z" fill="#FFC536"/>
<path d="M33.2007 146.322C33.2007 147.328 33.9224 148.564 34.8174 149.081C35.7124 149.599 36.4342 149.196 36.4342 148.162C36.4342 147.127 35.7124 145.92 34.8174 145.402C33.9224 144.914 33.2007 145.316 33.2007 146.322Z" fill="#5C6467"/>
<path d="M98.3032 181.617L135.431 160.291V133.791L98.3032 155.117V181.617Z" fill="#C99A6B"/>
<path d="M98.3036 181.616L61.1763 160.29V133.791L98.3036 155.117V181.616Z" fill="#AE835B"/>
<path d="M98.3036 155.117L61.1763 133.791L98.3036 112.465L135.431 133.791L98.3036 155.117Z" fill="#E8B687"/>
<path d="M82.3673 162.705L76.3911 159.284V142.528L82.3673 145.949V162.705Z" fill="#9C754E"/>
<path d="M82.3673 145.948L119.466 124.622L113.518 121.202L76.3911 142.528L82.3673 145.948Z" fill="#54493E"/>
<path d="M61.1763 133.791L98.3036 155.117L78.2675 144.454L61.1763 133.791Z" fill="#87623F"/>
<path d="M79.5951 144.368L116.722 123.042L116.318 122.812L79.1909 144.138L79.5951 144.368Z" fill="#D1A986"/>
<path d="M98.3032 154.226L135.431 132.9V106.4L98.3032 127.726V154.226Z" fill="#C99A6B"/>
<path d="M98.3036 154.226L61.1763 132.9V106.4L98.3036 127.726V154.226Z" fill="#AE835B"/>
<path d="M98.3036 127.726L61.1763 106.4L98.3036 85.0743L135.431 106.4L98.3036 127.726Z" fill="#E8B687"/>
<path d="M82.3673 135.314L76.3911 131.894V115.138L82.3673 118.587V135.314Z" fill="#9C754E"/>
<path d="M82.3673 118.587L119.466 97.232L113.518 93.8118L76.3911 115.138L82.3673 118.587Z" fill="#54493E"/>
<path d="M61.1763 106.4L98.3036 127.726L78.2675 117.063L61.1763 106.4Z" fill="#87623F"/>
<path d="M79.5951 116.977L116.722 95.6511L116.318 95.4211L79.1909 116.747L79.5951 116.977Z" fill="#D1A986"/>
<path d="M98.3032 126.864L135.431 105.509V79.0099L98.3032 100.365V126.864Z" fill="#C99A6B"/>
<path d="M98.3036 126.864L61.1763 105.509V79.0099L98.3036 100.365V126.864Z" fill="#AE835B"/>
<path d="M98.3036 100.365L61.1763 79.0099L98.3036 57.6838L135.431 79.0099L98.3036 100.365Z" fill="#E8B687"/>
<path d="M82.3673 107.952L76.3911 104.503V87.776L82.3673 91.1962V107.952Z" fill="#9C754E"/>
<path d="M82.3673 91.1963L119.466 69.8415L113.518 66.4213L76.3911 87.7761L82.3673 91.1963Z" fill="#54493E"/>
<path d="M61.1763 79.0099L98.3036 100.365L78.2675 89.6729L61.1763 79.0099Z" fill="#87623F"/>
<path d="M79.5951 89.6155L116.722 68.2607L116.318 68.0308L79.1909 89.3568L79.5951 89.6155Z" fill="#D1A986"/>
<path d="M96.9757 165.176L88.9209 160.549V151.352L96.9757 155.979V165.176ZM89.4694 160.233L96.4561 164.257V156.267L89.4694 152.243V160.233Z" fill="#87623F"/>
<path d="M93.8569 162.216L92.0669 161.21V156.554L93.8569 157.589V162.216Z" fill="#87623F"/>
<path d="M95.5894 159.486L90.3062 156.439L92.9622 154.801L95.5894 159.486Z" fill="#87623F"/>
<path d="M96.9757 138.045L88.9209 133.417V124.22L96.9757 128.847V138.045ZM89.4694 133.101L96.4561 137.125V129.135L89.4694 125.111V133.101Z" fill="#87623F"/>
<path d="M93.8569 135.084L92.0669 134.049V129.422L93.8569 130.457V135.084Z" fill="#87623F"/>
<path d="M95.5894 132.325L90.3062 129.307L92.9622 127.64L95.5894 132.325Z" fill="#87623F"/>
<path d="M96.9757 110.884L88.9209 106.257V97.0594L96.9757 101.687V110.884ZM89.4694 105.969L96.4561 109.993V102.003L89.4694 97.9792V105.969Z" fill="#87623F"/>
<path d="M93.8569 107.953L92.0669 106.918V102.291L93.8569 103.296V107.953Z" fill="#87623F"/>
<path d="M95.5894 105.193L90.3062 102.176L92.9622 100.509L95.5894 105.193Z" fill="#87623F"/>
</g>
<defs>
<clipPath id="clip0_8_419">
<rect width="149" height="203" fill="white"/>
</clipPath>
</defs>
</svg>
