<svg width="29" height="36" viewBox="0 0 29 36" fill="none" xmlns="http://www.w3.org/2000/svg">
<rect y="7" width="29" height="29" rx="4" fill="#EBEAEA"/>
<mask id="path-2-outside-1_8_225" maskUnits="userSpaceOnUse" x="5" y="2" width="18" height="28" fill="black">
<rect fill="white" x="5" y="2" width="18" height="28"/>
<path d="M21.1 9.956C21.1 11.18 20.872 12.416 20.416 13.664C19.984 14.912 19.42 16.136 18.724 17.336C18.052 18.536 17.296 19.7 16.456 20.828C15.64 21.932 14.836 22.952 14.044 23.888L12.136 25.364V25.544L14.728 25.04H21.64V29H6.484V26.588C7.06 25.988 7.708 25.292 8.428 24.5C9.148 23.684 9.868 22.832 10.588 21.944C11.332 21.032 12.052 20.096 12.748 19.136C13.444 18.176 14.068 17.216 14.62 16.256C15.172 15.272 15.604 14.324 15.916 13.412C16.252 12.5 16.42 11.636 16.42 10.82C16.42 9.836 16.132 9.032 15.556 8.408C15.004 7.76 14.116 7.436 12.892 7.436C12.124 7.436 11.332 7.604 10.516 7.94C9.724 8.252 9.052 8.66 8.5 9.164L6.628 5.852C7.564 5.084 8.62 4.472 9.796 4.016C10.996 3.536 12.4 3.296 14.008 3.296C15.04 3.296 15.988 3.44 16.852 3.728C17.716 4.016 18.46 4.436 19.084 4.988C19.708 5.54 20.2 6.236 20.56 7.076C20.92 7.892 21.1 8.852 21.1 9.956Z"/>
</mask>
<path d="M21.1 9.956C21.1 11.18 20.872 12.416 20.416 13.664C19.984 14.912 19.42 16.136 18.724 17.336C18.052 18.536 17.296 19.7 16.456 20.828C15.64 21.932 14.836 22.952 14.044 23.888L12.136 25.364V25.544L14.728 25.04H21.64V29H6.484V26.588C7.06 25.988 7.708 25.292 8.428 24.5C9.148 23.684 9.868 22.832 10.588 21.944C11.332 21.032 12.052 20.096 12.748 19.136C13.444 18.176 14.068 17.216 14.62 16.256C15.172 15.272 15.604 14.324 15.916 13.412C16.252 12.5 16.42 11.636 16.42 10.82C16.42 9.836 16.132 9.032 15.556 8.408C15.004 7.76 14.116 7.436 12.892 7.436C12.124 7.436 11.332 7.604 10.516 7.94C9.724 8.252 9.052 8.66 8.5 9.164L6.628 5.852C7.564 5.084 8.62 4.472 9.796 4.016C10.996 3.536 12.4 3.296 14.008 3.296C15.04 3.296 15.988 3.44 16.852 3.728C17.716 4.016 18.46 4.436 19.084 4.988C19.708 5.54 20.2 6.236 20.56 7.076C20.92 7.892 21.1 8.852 21.1 9.956Z" fill="#62D7F1"/>
<path d="M20.416 13.664L19.9463 13.4924L19.9435 13.5004L20.416 13.664ZM18.724 17.336L18.2914 17.0851L18.2877 17.0917L18.724 17.336ZM16.456 20.828L16.055 20.5294L16.0539 20.5308L16.456 20.828ZM14.044 23.888L14.3499 24.2835L14.3916 24.2512L14.4257 24.211L14.044 23.888ZM12.136 25.364L11.8301 24.9685L11.636 25.1186V25.364H12.136ZM12.136 25.544H11.636V26.1506L12.2314 26.0348L12.136 25.544ZM14.728 25.04V24.54H14.6798L14.6326 24.5492L14.728 25.04ZM21.64 25.04H22.14V24.54H21.64V25.04ZM21.64 29V29.5H22.14V29H21.64ZM6.484 29H5.984V29.5H6.484V29ZM6.484 26.588L6.12331 26.2417L5.984 26.3868V26.588H6.484ZM8.428 24.5L8.79801 24.8364L8.80292 24.8308L8.428 24.5ZM10.588 21.944L10.2006 21.6279L10.1996 21.6291L10.588 21.944ZM12.748 19.136L12.3432 18.8425L12.748 19.136ZM14.62 16.256L15.0535 16.5052L15.0561 16.5006L14.62 16.256ZM15.916 13.412L15.4467 13.2391L15.4429 13.2502L15.916 13.412ZM15.556 8.408L15.1754 8.73223L15.1818 8.73982L15.1886 8.74714L15.556 8.408ZM10.516 7.94L10.6993 8.40526L10.7064 8.40234L10.516 7.94ZM8.5 9.164L8.06472 9.41003L8.37358 9.95648L8.83713 9.53324L8.5 9.164ZM6.628 5.852L6.31084 5.46546L5.98589 5.73209L6.19272 6.09803L6.628 5.852ZM9.796 4.016L9.97677 4.48221L9.9817 4.48024L9.796 4.016ZM16.852 3.728L16.6939 4.20234L16.6939 4.20234L16.852 3.728ZM19.084 4.988L19.4153 4.6135L19.084 4.988ZM20.56 7.076L20.1004 7.27297L20.1025 7.27782L20.56 7.076ZM20.6 9.956C20.6 11.1167 20.384 12.2947 19.9464 13.4924L20.8856 13.8356C21.36 12.5373 21.6 11.2433 21.6 9.956H20.6ZM19.9435 13.5004C19.5225 14.7166 18.9722 15.9115 18.2915 17.0851L19.1565 17.5869C19.8678 16.3605 20.4455 15.1074 20.8885 13.8276L19.9435 13.5004ZM18.2877 17.0917C17.6265 18.2724 16.8824 19.4183 16.055 20.5294L16.857 21.1266C17.7096 19.9817 18.4775 18.7996 19.1603 17.5803L18.2877 17.0917ZM16.0539 20.5308C15.2437 21.627 14.4465 22.6383 13.6623 23.565L14.4257 24.211C15.2255 23.2657 16.0363 22.237 16.8581 21.1252L16.0539 20.5308ZM13.7381 23.4925L11.8301 24.9685L12.4419 25.7595L14.3499 24.2835L13.7381 23.4925ZM11.636 25.364V25.544H12.636V25.364H11.636ZM12.2314 26.0348L14.8234 25.5308L14.6326 24.5492L12.0406 25.0532L12.2314 26.0348ZM14.728 25.54H21.64V24.54H14.728V25.54ZM21.14 25.04V29H22.14V25.04H21.14ZM21.64 28.5H6.484V29.5H21.64V28.5ZM6.984 29V26.588H5.984V29H6.984ZM6.84469 26.9343C7.42457 26.3302 8.07574 25.6308 8.79797 24.8363L8.05803 24.1637C7.34026 24.9532 6.69543 25.6458 6.12331 26.2417L6.84469 26.9343ZM8.80292 24.8308C9.52774 24.0093 10.2522 23.152 10.9764 22.2589L10.1996 21.6291C9.48378 22.512 8.76826 23.3587 8.05308 24.1692L8.80292 24.8308ZM10.9754 22.2601C11.7255 21.3406 12.4513 20.3971 13.1528 19.4295L12.3432 18.8425C11.6527 19.7949 10.9385 20.7234 10.2006 21.6279L10.9754 22.2601ZM13.1528 19.4295C13.8584 18.4562 14.4921 17.4815 15.0535 16.5052L14.1865 16.0068C13.6439 16.9505 13.0296 17.8958 12.3432 18.8425L13.1528 19.4295ZM15.0561 16.5006C15.6205 15.4945 16.0658 14.5189 16.3891 13.5738L15.4429 13.2502C15.1422 14.1291 14.7235 15.0494 14.1839 16.0114L15.0561 16.5006ZM16.3852 13.5849C16.7378 12.6278 16.92 11.7051 16.92 10.82H15.92C15.92 11.5669 15.7662 12.3722 15.4468 13.2391L16.3852 13.5849ZM16.92 10.82C16.92 9.73163 16.5981 8.79978 15.9234 8.06886L15.1886 8.74714C15.6659 9.26422 15.92 9.94037 15.92 10.82H16.92ZM15.9366 8.08377C15.2538 7.28218 14.1964 6.936 12.892 6.936V7.936C14.0356 7.936 14.7542 8.23782 15.1754 8.73223L15.9366 8.08377ZM12.892 6.936C12.0497 6.936 11.1931 7.12047 10.3256 7.47766L10.7064 8.40234C11.4709 8.08753 12.1983 7.936 12.892 7.936V6.936ZM10.3327 7.47479C9.49182 7.80607 8.76568 8.24437 8.16287 8.79476L8.83713 9.53324C9.33833 9.07563 9.95618 8.69793 10.6993 8.4052L10.3327 7.47479ZM8.93528 8.91797L7.06328 5.60597L6.19272 6.09803L8.06472 9.41003L8.93528 8.91797ZM6.94516 6.23854C7.83851 5.50553 8.84808 4.91983 9.97676 4.48218L9.61524 3.54982C8.39192 4.02417 7.28949 4.66247 6.31084 5.46546L6.94516 6.23854ZM9.9817 4.48024C11.1101 4.02886 12.4486 3.796 14.008 3.796V2.796C12.3514 2.796 10.8819 3.04314 9.6103 3.55176L9.9817 4.48024ZM14.008 3.796C14.9933 3.796 15.8872 3.93343 16.6939 4.20234L17.0101 3.25366C16.0888 2.94657 15.0867 2.796 14.008 2.796V3.796ZM16.6939 4.20234C17.5 4.47105 18.1837 4.8591 18.7527 5.3625L19.4153 4.6135C18.7363 4.0129 17.932 3.56094 17.0101 3.25366L16.6939 4.20234ZM18.7527 5.3625C19.3162 5.86094 19.7667 6.49422 20.1004 7.27296L21.0196 6.87904C20.6333 5.97777 20.0998 5.21906 19.4153 4.6135L18.7527 5.3625ZM20.1025 7.27782C20.4287 8.01701 20.6 8.90543 20.6 9.956H21.6C21.6 8.79857 21.4113 7.76698 21.0175 6.87418L20.1025 7.27782Z" fill="#62D7F1" mask="url(#path-2-outside-1_8_225)"/>
</svg>
