<svg width="29" height="36" viewBox="0 0 29 36" fill="none" xmlns="http://www.w3.org/2000/svg">
<rect y="7" width="29" height="29" rx="4" fill="#EBEAEA"/>
<mask id="path-2-outside-1_8_235" maskUnits="userSpaceOnUse" x="5" y="3" width="17" height="28" fill="black">
<rect fill="white" x="5" y="3" width="17" height="28"/>
<path d="M11.92 25.364C13.504 25.364 14.716 24.98 15.556 24.212C16.396 23.444 16.816 22.388 16.816 21.044C16.816 19.604 16.324 18.548 15.34 17.876C14.356 17.204 12.952 16.868 11.128 16.868L8.284 16.976V3.8H20.668V8.192H12.316V13.052L13.792 12.908C14.968 12.956 16.024 13.172 16.96 13.556C17.92 13.94 18.736 14.48 19.408 15.176C20.08 15.848 20.596 16.676 20.956 17.66C21.316 18.62 21.496 19.7 21.496 20.9C21.496 22.316 21.256 23.564 20.776 24.644C20.296 25.724 19.624 26.624 18.76 27.344C17.92 28.064 16.924 28.604 15.772 28.964C14.62 29.324 13.36 29.504 11.992 29.504C10.912 29.504 9.88 29.408 8.896 29.216C7.936 29.048 7.12 28.808 6.448 28.496L7.708 24.608C8.26 24.848 8.86 25.04 9.508 25.184C10.18 25.304 10.984 25.364 11.92 25.364Z"/>
</mask>
<path d="M11.92 25.364C13.504 25.364 14.716 24.98 15.556 24.212C16.396 23.444 16.816 22.388 16.816 21.044C16.816 19.604 16.324 18.548 15.34 17.876C14.356 17.204 12.952 16.868 11.128 16.868L8.284 16.976V3.8H20.668V8.192H12.316V13.052L13.792 12.908C14.968 12.956 16.024 13.172 16.96 13.556C17.92 13.94 18.736 14.48 19.408 15.176C20.08 15.848 20.596 16.676 20.956 17.66C21.316 18.62 21.496 19.7 21.496 20.9C21.496 22.316 21.256 23.564 20.776 24.644C20.296 25.724 19.624 26.624 18.76 27.344C17.92 28.064 16.924 28.604 15.772 28.964C14.62 29.324 13.36 29.504 11.992 29.504C10.912 29.504 9.88 29.408 8.896 29.216C7.936 29.048 7.12 28.808 6.448 28.496L7.708 24.608C8.26 24.848 8.86 25.04 9.508 25.184C10.18 25.304 10.984 25.364 11.92 25.364Z" fill="#62D7F1"/>
<path d="M15.556 24.212L15.8934 24.581L15.556 24.212ZM15.34 17.876L15.622 17.4631L15.34 17.876ZM11.128 16.868V16.368H11.1185L11.109 16.3684L11.128 16.868ZM8.284 16.976H7.784V17.4953L8.30297 17.4756L8.284 16.976ZM8.284 3.8V3.3H7.784V3.8H8.284ZM20.668 3.8H21.168V3.3H20.668V3.8ZM20.668 8.192V8.692H21.168V8.192H20.668ZM12.316 8.192V7.692H11.816V8.192H12.316ZM12.316 13.052H11.816V13.6032L12.3646 13.5496L12.316 13.052ZM13.792 12.908L13.8124 12.4084L13.7779 12.407L13.7435 12.4104L13.792 12.908ZM16.96 13.556L16.7702 14.0186L16.7743 14.0202L16.96 13.556ZM19.408 15.176L19.0482 15.5234L19.0544 15.5296L19.408 15.176ZM20.956 17.66L20.4864 17.8318L20.4878 17.8356L20.956 17.66ZM18.76 27.344L18.4399 26.9599L18.4346 26.9644L18.76 27.344ZM15.772 28.964L15.9211 29.4412L15.772 28.964ZM8.896 29.216L8.99177 28.7252L8.98219 28.7235L8.896 29.216ZM6.448 28.496L5.97235 28.3419L5.83585 28.7631L6.23744 28.9495L6.448 28.496ZM7.708 24.608L7.90736 24.1495L7.40218 23.9298L7.23235 24.4539L7.708 24.608ZM9.508 25.184L9.39954 25.6721L9.40978 25.6744L9.4201 25.6762L9.508 25.184ZM11.92 25.864C13.5798 25.864 14.9305 25.4614 15.8934 24.581L15.2186 23.843C14.5015 24.4986 13.4282 24.864 11.92 24.864V25.864ZM15.8934 24.581C16.8558 23.7011 17.316 22.5007 17.316 21.044H16.316C16.316 22.2753 15.9362 23.1869 15.2186 23.843L15.8934 24.581ZM17.316 21.044C17.316 19.4781 16.7719 18.2484 15.622 17.4631L15.058 18.2889C15.8761 18.8476 16.316 19.7299 16.316 21.044H17.316ZM15.622 17.4631C14.5215 16.7116 13.0028 16.368 11.128 16.368V17.368C12.9012 17.368 14.1905 17.6964 15.058 18.2889L15.622 17.4631ZM11.109 16.3684L8.26503 16.4764L8.30297 17.4756L11.147 17.3676L11.109 16.3684ZM8.784 16.976V3.8H7.784V16.976H8.784ZM8.284 4.3H20.668V3.3H8.284V4.3ZM20.168 3.8V8.192H21.168V3.8H20.168ZM20.668 7.692H12.316V8.692H20.668V7.692ZM11.816 8.192V13.052H12.816V8.192H11.816ZM12.3646 13.5496L13.8406 13.4056L13.7435 12.4104L12.2675 12.5544L12.3646 13.5496ZM13.7716 13.4076C14.8988 13.4536 15.8961 13.66 16.7702 14.0186L17.1498 13.0934C16.1519 12.684 15.0372 12.4584 13.8124 12.4084L13.7716 13.4076ZM16.7743 14.0202C17.6733 14.3798 18.4287 14.8816 19.0483 15.5233L19.7677 14.8287C19.0433 14.0784 18.1667 13.5002 17.1457 13.0918L16.7743 14.0202ZM19.0544 15.5296C19.6699 16.1451 20.1488 16.909 20.4864 17.8318L21.4256 17.4882C21.0432 16.443 20.4901 15.5509 19.7616 14.8224L19.0544 15.5296ZM20.4878 17.8356C20.8235 18.7307 20.996 19.7499 20.996 20.9H21.996C21.996 19.6501 21.8085 18.5093 21.4242 17.4844L20.4878 17.8356ZM20.996 20.9C20.996 22.2597 20.7656 23.4362 20.3191 24.4409L21.2329 24.8471C21.7464 23.6918 21.996 22.3723 21.996 20.9H20.996ZM20.3191 24.4409C19.8686 25.4546 19.242 26.2915 18.4399 26.9599L19.0801 27.7281C20.006 26.9565 20.7234 25.9934 21.2329 24.8471L20.3191 24.4409ZM18.4346 26.9644C17.6506 27.6363 16.716 28.1451 15.6229 28.4868L15.9211 29.4412C17.132 29.0629 18.1894 28.4917 19.0854 27.7236L18.4346 26.9644ZM15.6229 28.4868C14.5251 28.8298 13.3161 29.004 11.992 29.004V30.004C13.4039 30.004 14.7149 29.8182 15.9211 29.4412L15.6229 28.4868ZM11.992 29.004C10.9417 29.004 9.94189 28.9106 8.99176 28.7253L8.80025 29.7067C9.81811 29.9054 10.8823 30.004 11.992 30.004V29.004ZM8.98219 28.7235C8.0525 28.5608 7.2808 28.3314 6.65856 28.0425L6.23744 28.9495C6.9592 29.2846 7.8195 29.5352 8.80981 29.7085L8.98219 28.7235ZM6.92365 28.6501L8.18365 24.7621L7.23235 24.4539L5.97235 28.3419L6.92365 28.6501ZM7.50864 25.0665C8.09274 25.3205 8.72351 25.5219 9.39954 25.6721L9.61647 24.6959C8.99649 24.5581 8.42726 24.3755 7.90736 24.1495L7.50864 25.0665ZM9.4201 25.6762C10.1295 25.8029 10.9645 25.864 11.92 25.864V24.864C11.0035 24.864 10.2305 24.8051 9.5959 24.6918L9.4201 25.6762Z" fill="#62D7F1" mask="url(#path-2-outside-1_8_235)"/>
</svg>
