<svg width="29" height="36" viewBox="0 0 29 36" fill="none" xmlns="http://www.w3.org/2000/svg">
<rect y="7" width="29" height="29" rx="4" fill="#EBEAEA"/>
<mask id="path-2-outside-1_8_228" maskUnits="userSpaceOnUse" x="6" y="3" width="17" height="28" fill="black">
<rect fill="white" x="6" y="3" width="17" height="28"/>
<path d="M12.676 25.544C14.164 25.544 15.292 25.148 16.06 24.356C16.852 23.564 17.248 22.604 17.248 21.476C17.248 20.108 16.84 19.1 16.024 18.452C15.208 17.804 13.924 17.48 12.172 17.48H9.58V14.996L13.936 9.056L15.988 7.436L13.144 7.76H7.096V3.8H20.848V6.356L15.772 13.16L14.188 14.132V14.312L15.7 14.096C16.54 14.168 17.332 14.36 18.076 14.672C18.844 14.984 19.504 15.44 20.056 16.04C20.632 16.616 21.088 17.336 21.424 18.2C21.76 19.064 21.928 20.06 21.928 21.188C21.928 22.604 21.688 23.828 21.208 24.86C20.752 25.892 20.104 26.756 19.264 27.452C18.448 28.148 17.488 28.664 16.384 29C15.28 29.336 14.092 29.504 12.82 29.504C11.764 29.504 10.672 29.408 9.544 29.216C8.416 29.024 7.504 28.748 6.808 28.388L8.068 24.5C8.692 24.812 9.376 25.064 10.12 25.256C10.888 25.448 11.74 25.544 12.676 25.544Z"/>
</mask>
<path d="M12.676 25.544C14.164 25.544 15.292 25.148 16.06 24.356C16.852 23.564 17.248 22.604 17.248 21.476C17.248 20.108 16.84 19.1 16.024 18.452C15.208 17.804 13.924 17.48 12.172 17.48H9.58V14.996L13.936 9.056L15.988 7.436L13.144 7.76H7.096V3.8H20.848V6.356L15.772 13.16L14.188 14.132V14.312L15.7 14.096C16.54 14.168 17.332 14.36 18.076 14.672C18.844 14.984 19.504 15.44 20.056 16.04C20.632 16.616 21.088 17.336 21.424 18.2C21.76 19.064 21.928 20.06 21.928 21.188C21.928 22.604 21.688 23.828 21.208 24.86C20.752 25.892 20.104 26.756 19.264 27.452C18.448 28.148 17.488 28.664 16.384 29C15.28 29.336 14.092 29.504 12.82 29.504C11.764 29.504 10.672 29.408 9.544 29.216C8.416 29.024 7.504 28.748 6.808 28.388L8.068 24.5C8.692 24.812 9.376 25.064 10.12 25.256C10.888 25.448 11.74 25.544 12.676 25.544Z" fill="#62D7F1"/>
<path d="M16.06 24.356L15.7064 24.0024L15.701 24.0079L16.06 24.356ZM9.58 17.48H9.08V17.98H9.58V17.48ZM9.58 14.996L9.1768 14.7003L9.08 14.8323V14.996H9.58ZM13.936 9.056L13.6262 8.66356L13.5729 8.7056L13.5328 8.76032L13.936 9.056ZM15.988 7.436L16.2978 7.82844L17.6759 6.74047L15.9314 6.93921L15.988 7.436ZM13.144 7.76V8.26H13.1724L13.2006 8.25679L13.144 7.76ZM7.096 7.76H6.596V8.26H7.096V7.76ZM7.096 3.8V3.3H6.596V3.8H7.096ZM20.848 3.8H21.348V3.3H20.848V3.8ZM20.848 6.356L21.2488 6.65498L21.348 6.52196V6.356H20.848ZM15.772 13.16L16.0335 13.5862L16.1153 13.5359L16.1728 13.459L15.772 13.16ZM14.188 14.132L13.9265 13.7058L13.688 13.8522V14.132H14.188ZM14.188 14.312H13.688V14.8885L14.2587 14.807L14.188 14.312ZM15.7 14.096L15.7427 13.5978L15.6858 13.5929L15.6293 13.601L15.7 14.096ZM18.076 14.672L17.8826 15.1331L17.8878 15.1352L18.076 14.672ZM20.056 16.04L19.688 16.3785L19.6951 16.3862L19.7024 16.3936L20.056 16.04ZM21.208 24.86L20.7546 24.6491L20.7507 24.6579L21.208 24.86ZM19.264 27.452L18.945 27.0669L18.9395 27.0716L19.264 27.452ZM9.544 29.216L9.6279 28.7231L9.544 29.216ZM6.808 28.388L6.33235 28.2339L6.20162 28.6373L6.57829 28.8321L6.808 28.388ZM8.068 24.5L8.29161 24.0528L7.77159 23.7928L7.59235 24.3459L8.068 24.5ZM10.12 25.256L9.99506 25.7402L9.99873 25.7411L10.12 25.256ZM12.676 26.044C14.2505 26.044 15.5275 25.6234 16.419 24.7041L15.701 24.0079C15.0565 24.6726 14.0775 25.044 12.676 25.044V26.044ZM16.4136 24.7096C17.3001 23.823 17.748 22.7355 17.748 21.476H16.748C16.748 22.4725 16.4039 23.305 15.7064 24.0024L16.4136 24.7096ZM17.748 21.476C17.748 20.007 17.3056 18.8313 16.3349 18.0604L15.7131 18.8436C16.3744 19.3687 16.748 20.209 16.748 21.476H17.748ZM16.3349 18.0604C15.3879 17.3084 13.9667 16.98 12.172 16.98V17.98C13.8813 17.98 15.0281 18.2996 15.7131 18.8436L16.3349 18.0604ZM12.172 16.98H9.58V17.98H12.172V16.98ZM10.08 17.48V14.996H9.08V17.48H10.08ZM9.9832 15.2917L14.3392 9.35168L13.5328 8.76032L9.1768 14.7003L9.9832 15.2917ZM14.2458 9.44844L16.2978 7.82844L15.6782 7.04356L13.6262 8.66356L14.2458 9.44844ZM15.9314 6.93921L13.0874 7.26321L13.2006 8.25679L16.0446 7.93279L15.9314 6.93921ZM13.144 7.26H7.096V8.26H13.144V7.26ZM7.596 7.76V3.8H6.596V7.76H7.596ZM7.096 4.3H20.848V3.3H7.096V4.3ZM20.348 3.8V6.356H21.348V3.8H20.348ZM20.4472 6.05702L15.3712 12.861L16.1728 13.459L21.2488 6.65498L20.4472 6.05702ZM15.5105 12.7338L13.9265 13.7058L14.4495 14.5582L16.0335 13.5862L15.5105 12.7338ZM13.688 14.132V14.312H14.688V14.132H13.688ZM14.2587 14.807L15.7707 14.591L15.6293 13.601L14.1173 13.817L14.2587 14.807ZM15.6573 14.5942C16.4478 14.6619 17.1888 14.8421 17.8826 15.1331L18.2694 14.2109C17.4753 13.8779 16.6322 13.6741 15.7427 13.5978L15.6573 14.5942ZM17.8878 15.1352C18.5886 15.4199 19.1869 15.8338 19.688 16.3785L20.424 15.7015C19.8211 15.0462 19.0994 14.5481 18.2642 14.2088L17.8878 15.1352ZM19.7024 16.3936C20.2231 16.9142 20.6437 17.5729 20.958 18.3812L21.89 18.0188C21.5323 17.0991 21.0409 16.3178 20.4096 15.6864L19.7024 16.3936ZM20.958 18.3812C21.2672 19.1764 21.428 20.1089 21.428 21.188H22.428C22.428 20.0111 22.2528 18.9516 21.89 18.0188L20.958 18.3812ZM21.428 21.188C21.428 22.5485 21.1974 23.6973 20.7546 24.6491L21.6614 25.0709C22.1786 23.9587 22.428 22.6595 22.428 21.188H21.428ZM20.7507 24.6579C20.3249 25.6216 19.7233 26.4221 18.945 27.067L19.583 27.837C20.4847 27.0899 21.1791 26.1624 21.6653 25.0621L20.7507 24.6579ZM18.9395 27.0716C18.1797 27.7197 17.2818 28.2041 16.2384 28.5217L16.5296 29.4783C17.6942 29.1239 18.7163 28.5763 19.5885 27.8324L18.9395 27.0716ZM16.2384 28.5217C15.1862 28.8419 14.0477 29.004 12.82 29.004V30.004C14.1363 30.004 15.3738 29.8301 16.5296 29.4783L16.2384 28.5217ZM12.82 29.004C11.7943 29.004 10.7305 28.9108 9.6279 28.7231L9.4601 29.7089C10.6135 29.9052 11.7337 30.004 12.82 30.004V29.004ZM9.6279 28.7231C8.52957 28.5361 7.67211 28.272 7.03771 27.9439L6.57829 28.8321C7.33589 29.224 8.30243 29.5119 9.4601 29.7089L9.6279 28.7231ZM7.28365 28.5421L8.54365 24.6541L7.59235 24.3459L6.33235 28.2339L7.28365 28.5421ZM7.84439 24.9472C8.50288 25.2765 9.22036 25.5402 9.99506 25.7401L10.2449 24.7719C9.53164 24.5878 8.88112 24.3475 8.29161 24.0528L7.84439 24.9472ZM9.99873 25.7411C10.8128 25.9446 11.7063 26.044 12.676 26.044V25.044C11.7737 25.044 10.9632 24.9514 10.2413 24.7709L9.99873 25.7411Z" fill="#62D7F1" mask="url(#path-2-outside-1_8_228)"/>
</svg>
