<svg width="29" height="36" viewBox="0 0 29 36" fill="none" xmlns="http://www.w3.org/2000/svg">
<rect y="7" width="29" height="29" rx="4" fill="#EBEAEA"/>
<mask id="path-2-outside-1_8_222" maskUnits="userSpaceOnUse" x="5" y="2" width="18" height="28" fill="black">
<rect fill="white" x="5" y="2" width="18" height="28"/>
<path d="M7.636 25.04H12.64V10.82L13.18 8.372L11.452 10.496L8.248 12.692L6.268 9.992L14.476 3.368H17.104V25.04H22V29H7.636V25.04Z"/>
</mask>
<path d="M7.636 25.04H12.64V10.82L13.18 8.372L11.452 10.496L8.248 12.692L6.268 9.992L14.476 3.368H17.104V25.04H22V29H7.636V25.04Z" fill="#62D7F1"/>
<path d="M7.636 25.04V24.54H7.136V25.04H7.636ZM12.64 25.04V25.54H13.14V25.04H12.64ZM12.64 10.82L12.1517 10.7123L12.14 10.7655V10.82H12.64ZM13.18 8.372L13.6683 8.4797L12.7921 8.05646L13.18 8.372ZM11.452 10.496L11.7347 10.9084L11.7943 10.8676L11.8399 10.8115L11.452 10.496ZM8.248 12.692L7.8448 12.9877L8.1312 13.3782L8.53067 13.1044L8.248 12.692ZM6.268 9.992L5.95399 9.6029L5.58249 9.90271L5.8648 10.2877L6.268 9.992ZM14.476 3.368V2.868H14.2994L14.162 2.9789L14.476 3.368ZM17.104 3.368H17.604V2.868H17.104V3.368ZM17.104 25.04H16.604V25.54H17.104V25.04ZM22 25.04H22.5V24.54H22V25.04ZM22 29V29.5H22.5V29H22ZM7.636 29H7.136V29.5H7.636V29ZM7.636 25.54H12.64V24.54H7.636V25.54ZM13.14 25.04V10.82H12.14V25.04H13.14ZM13.1283 10.9277L13.6683 8.4797L12.6917 8.26429L12.1517 10.7123L13.1283 10.9277ZM12.7921 8.05646L11.0641 10.1805L11.8399 10.8115L13.5679 8.68754L12.7921 8.05646ZM11.1693 10.0836L7.96533 12.2796L8.53067 13.1044L11.7347 10.9084L11.1693 10.0836ZM8.6512 12.3963L6.6712 9.69632L5.8648 10.2877L7.8448 12.9877L8.6512 12.3963ZM6.58201 10.3811L14.79 3.7571L14.162 2.9789L5.95399 9.6029L6.58201 10.3811ZM14.476 3.868H17.104V2.868H14.476V3.868ZM16.604 3.368V25.04H17.604V3.368H16.604ZM17.104 25.54H22V24.54H17.104V25.54ZM21.5 25.04V29H22.5V25.04H21.5ZM22 28.5H7.636V29.5H22V28.5ZM8.136 29V25.04H7.136V29H8.136Z" fill="#62D7F1" mask="url(#path-2-outside-1_8_222)"/>
</svg>
